<svg width="80" height="80" viewBox="0 0 80 80" fill="none" xmlns="http://www.w3.org/2000/svg">
<path d="M36.375 1.54688C36.1406 1.73438 35.7813 2.4375 35.4063 3.42188L34.8125 4.98438L33.7656 5.32812C33.2031 5.51562 32.1875 5.9375 31.5156 6.26562L30.2969 6.84375L28.7344 6.15625C27.875 5.78125 27.0313 5.46875 26.8438 5.46875C26.4375 5.46875 21.75 10.0469 21.625 10.5781C21.5625 10.7812 21.8125 11.5312 22.25 12.5625L22.9688 14.2188L22.4375 15.2656C22.1563 15.8594 21.7188 16.8594 21.4844 17.5312L21.0625 18.7188L19.5156 19.3125C17.2656 20.1406 17.3438 19.9688 17.3438 23.8906C17.3438 26.5 17.3906 27.1875 17.5781 27.4531C17.7031 27.6406 18.4531 28.0312 19.3281 28.375C20.1719 28.7031 20.9219 29.0156 20.9844 29.0781C21.0625 29.1406 21.3125 29.7344 21.5469 30.4062C21.7969 31.0938 22.2031 32.0781 22.4844 32.6094L22.9688 33.5938L22.2656 35.1719C21.875 36.0469 21.5625 36.9062 21.5625 37.0781C21.5625 37.4844 26.1406 42.125 26.6719 42.2656C26.9375 42.3281 27.5469 42.1406 28.6563 41.6406L30.2813 40.9062L31.1094 41.3438C31.5781 41.5781 32.5938 42 33.3594 42.2656L34.7656 42.7656L35.4063 44.3594C35.75 45.2344 36.1563 46.0625 36.3125 46.2188C36.5469 46.4531 36.9688 46.4844 40 46.4844C43.0313 46.4844 43.4531 46.4531 43.6875 46.2188C43.8438 46.0625 44.25 45.2344 44.5938 44.3594L45.2344 42.7656L46.6406 42.2656C47.4219 42 48.4219 41.5781 48.8906 41.3438L49.7188 40.9062L51.3438 41.6406C52.4531 42.1406 53.0625 42.3281 53.3281 42.2656C53.8594 42.125 58.4375 37.4844 58.4375 37.0781C58.4375 36.9062 58.125 36.0469 57.7344 35.1719L57.0313 33.5938L57.5156 32.6094C57.7969 32.0781 58.2031 31.0938 58.4531 30.4062C58.6875 29.7344 58.9375 29.1406 59.0156 29.0781C59.0781 29.0156 59.8281 28.7031 60.6719 28.375C61.5469 28.0312 62.2969 27.6406 62.4219 27.4531C62.6094 27.1875 62.6563 26.5 62.6563 23.8906C62.6563 19.9688 62.7344 20.1406 60.4844 19.3125L58.9375 18.7188L58.5156 17.5312C58.2813 16.8594 57.8438 15.8594 57.5625 15.2656L57.0313 14.2188L57.75 12.5625C58.1875 11.5312 58.4375 10.7812 58.375 10.5781C58.25 10.0469 53.5625 5.46875 53.1563 5.46875C52.9688 5.46875 52.125 5.78125 51.2656 6.15625L49.7031 6.84375L48.6406 6.3125C48.0625 6.01562 47.0469 5.60938 46.3906 5.39062L45.1875 4.98438L44.5938 3.42188C43.7344 1.15625 43.9219 1.25 40 1.25C37.0469 1.25 36.7344 1.28125 36.375 1.54688ZM42.6094 5.23438C42.9063 6 43.2656 6.75 43.4063 6.90625C43.5469 7.04688 44.2656 7.34375 45 7.5625C45.7344 7.78125 47.0313 8.3125 47.875 8.75C48.7344 9.17188 49.5156 9.53125 49.625 9.53125C49.7344 9.53125 50.5 9.23438 51.3281 8.875L52.8281 8.21875L54.25 9.64062L55.6719 11.0781L55.0313 12.5469C54.6719 13.375 54.375 14.1562 54.375 14.2969C54.375 14.4531 54.6563 15.0781 55 15.6875C55.3281 16.3125 55.875 17.5781 56.1875 18.5312C56.4844 19.4688 56.8594 20.3594 57 20.5C57.1563 20.6406 57.9063 21 58.6719 21.2969L60.0781 21.8281L60.125 23.8594L60.1719 25.9062L58.7188 26.4688C57.9219 26.7812 57.1719 27.0938 57.0625 27.1562C56.9531 27.2344 56.6094 28.0156 56.3125 28.9062C56.0156 29.7969 55.4531 31.125 55.0781 31.875C54.6875 32.625 54.375 33.3438 54.375 33.4844C54.375 33.6094 54.6719 34.4062 55.0313 35.2344L55.6875 36.7344L54.2656 38.1562L52.8281 39.5938L51.375 38.9375C50.5781 38.5781 49.7813 38.2812 49.6094 38.2812C49.4375 38.2812 48.6094 38.625 47.7813 39.0469C46.9531 39.4844 45.6719 40.0156 44.9375 40.2344C44.2031 40.4531 43.5 40.7344 43.375 40.8594C43.2656 40.9844 42.9063 41.75 42.5781 42.5625L42 44.0625H40H38L37.4219 42.5625C37.0938 41.75 36.7344 40.9844 36.625 40.8594C36.5 40.7344 35.7969 40.4531 35.0625 40.2344C34.3281 40.0156 33.0469 39.4844 32.2188 39.0469C31.3906 38.625 30.5625 38.2812 30.3906 38.2812C30.2188 38.2812 29.4219 38.5781 28.625 38.9375L27.1719 39.5938L25.7344 38.1562L24.3125 36.7344L24.9688 35.2344C25.3281 34.4062 25.625 33.625 25.625 33.5C25.625 33.375 25.2813 32.5938 24.8594 31.75C24.4375 30.9062 23.9063 29.6094 23.6719 28.8594C23.4375 28.0938 23.1406 27.3906 23.0313 27.2656C22.9063 27.1562 22.1406 26.7969 21.3281 26.4844L19.8281 25.9062L19.875 23.8594L19.9219 21.8281L21.3281 21.2969C22.1094 21 22.8438 20.6406 23 20.5C23.1406 20.3594 23.5156 19.4688 23.8125 18.5312C24.125 17.5781 24.6719 16.3125 25 15.6875C25.3438 15.0781 25.625 14.4531 25.625 14.2969C25.625 14.1562 25.3281 13.375 24.9688 12.5469L24.3281 11.0781L25.7188 9.67188C26.4844 8.90625 27.1719 8.28125 27.2344 8.28125C27.3125 8.28125 28.0156 8.5625 28.7813 8.90625C29.5625 9.25 30.2813 9.53125 30.3906 9.53125C30.4844 9.53125 31.2656 9.17188 32.125 8.75C32.9688 8.3125 34.2656 7.78125 35 7.54688C35.7344 7.32812 36.4375 7.04688 36.5938 6.92188C36.7344 6.79688 37 6.26562 37.2031 5.73438C37.3906 5.20312 37.6563 4.53125 37.7656 4.25L37.9844 3.73438L40.0313 3.78125L42.0781 3.82812L42.6094 5.23438Z" fill="#261FB8"/>
<path d="M37.3438 10.3907C33.6563 11.1719 30.5625 13.2501 28.5313 16.3126C25.6407 20.6719 25.5157 26.5157 28.2344 30.9844C30.0625 34.0001 33.2032 36.3126 36.625 37.1876C43.9219 39.0313 51.3125 34.6719 53.3125 27.3438C53.8125 25.4688 53.8282 22.2032 53.3125 20.4219C52.4219 17.2969 50.7032 14.7344 48.2344 12.8751C47.0782 12.0001 44.8438 10.9219 43.4375 10.5469C42.0625 10.1876 38.6875 10.0938 37.3438 10.3907ZM42.4219 12.8907C43.0313 13.0157 44.1875 13.4532 45 13.8438C46.25 14.4688 46.7032 14.7969 47.9063 16.0001C49.4532 17.5626 50.1719 18.7344 50.8125 20.7813C51.1094 21.7657 51.1719 22.2657 51.1563 23.9844C51.1407 25.7344 51.0782 26.1876 50.7344 27.2657C50.1563 29.0157 49.3282 30.3438 47.9688 31.7344C42.0157 37.7813 31.9532 35.3751 29.2657 27.2657C28.9063 26.1876 28.8438 25.7501 28.8438 23.9844C28.8282 22.2657 28.8907 21.7657 29.1875 20.7813C29.8282 18.7344 30.5469 17.5626 32.0938 16.0001C33.2969 14.7969 33.75 14.4688 35 13.8438C35.8125 13.4376 36.9375 13.0157 37.5 12.9063C38.8438 12.6094 41.0625 12.6094 42.4219 12.8907Z" fill="#261FB8"/>
<path d="M39.4532 14.875C38.9532 15.1719 38.7657 15.5 38.75 16.125C38.75 16.5469 38.6875 16.7188 38.5157 16.7188C38.1094 16.7188 36.9844 17.3438 36.4375 17.875C35.5469 18.7031 35.2344 19.4531 35.2344 20.7812C35.2344 23.1562 36.5625 24.4062 39.7657 25.0625C41.4844 25.4062 42.3594 25.875 42.625 26.5938C42.8125 27.0625 42.8125 27.2344 42.625 27.5938C42.2657 28.3438 41.5 28.6719 40.0782 28.6719C38.4688 28.6719 37.8438 28.3281 37.2813 27.125C36.7969 26.1094 36.2188 25.7812 35.5157 26.125C34.3438 26.6875 34.5782 28.2031 36.0938 29.7031C36.7657 30.375 37.1875 30.6562 37.8594 30.875C38.7032 31.1406 38.75 31.1875 38.75 31.6406C38.75 32.4219 39.2657 32.9688 40 32.9688C40.7344 32.9688 41.25 32.4219 41.25 31.625C41.25 31.2656 41.3282 31.0938 41.4844 31.0938C42.1094 31.0938 43.4844 30.3906 44.1407 29.75C46.1407 27.7344 45.3282 24.4688 42.5313 23.25C42.125 23.0781 41.1719 22.8125 40.4063 22.6406C39.6563 22.4688 38.8282 22.2344 38.5782 22.1094C36.7813 21.1719 37.7657 19.0625 40 19.0625C41.0625 19.0625 41.8125 19.4375 42.3125 20.2188C42.8438 21.0625 43.0938 21.25 43.6407 21.25C44.2657 21.25 44.625 21.0156 44.8125 20.4844C45.1563 19.4844 43.5 17.3438 41.9844 16.8281C41.4375 16.6562 41.3282 16.5469 41.2813 16.1562C41.2188 15.5 40.9532 15.0625 40.5157 14.8594C40.0469 14.6406 39.8438 14.6562 39.4532 14.875Z" fill="#261FB8"/>
<path d="M6.20315 15C4.37503 15.4688 2.84378 16.7969 2.26565 18.4219C2.09378 18.9219 1.95315 22.25 1.64065 33.4375C1.1719 49.7344 1.14065 49.0625 2.3594 51.5625C3.00003 52.8594 3.15628 53.0312 9.5469 59.4531L16.0938 66.0312V67.2344V68.4375H14.4844C12.4688 68.4375 11.7344 68.75 11.0157 69.9219C10.5938 70.6094 10.5469 70.8125 10.5 72.3281C10.4688 73.2344 10.5157 74.6406 10.5938 75.4375C10.7188 76.6875 10.8125 76.9844 11.2032 77.4688C11.4532 77.7812 11.9688 78.2031 12.3594 78.4062L13.0469 78.7656L24.2969 78.6719L35.5469 78.5625L36.375 78.1719C36.9375 77.9062 37.3438 77.5781 37.625 77.1406C38.0313 76.5312 38.0469 76.4375 38.0938 73.8125C38.1563 70.8594 38.0313 70.125 37.3907 69.375C36.7657 68.625 35.9532 68.2812 34.7657 68.2812H33.75V62.5C33.75 56.1719 33.6094 54.2656 33.0313 52.5312C32.3125 50.375 31.7813 49.75 27.3438 45.9844C26.0157 44.8594 23.875 42.8594 22.5782 41.5469C19.75 38.6719 19.2032 38.3594 17.2657 38.375C15.7188 38.375 14.8594 38.75 13.8438 39.8438C13.4532 40.2656 13.1094 40.5938 13.0938 40.5781C13.0782 40.5625 13.0157 36.1562 12.9688 30.7812C12.8594 20.0938 12.8594 20.1094 11.875 18.0625C10.7813 15.7656 8.3594 14.4688 6.20315 15ZM8.2344 17.6094C8.95315 17.9531 9.6094 18.8594 10.0313 20.1406C10.375 21.1406 10.375 21.4219 10.4688 31.0156C10.5782 41.6094 10.5469 41.2656 11.4532 43.0469C12.1875 44.5312 13.125 45.625 16.8125 49.375C20.1094 52.7031 20.2969 52.875 20.8594 52.875C21.5625 52.875 22.0313 52.3906 22.0313 51.6875C22.0313 51.2812 21.5625 50.7344 18.8282 47.9531C15.7032 44.7656 15 43.8594 15 43.0469C15 41.4688 16.875 40.2812 18.25 41C18.5313 41.1406 19.8282 42.3438 21.125 43.6562C22.4375 44.9688 24.8125 47.1562 26.4063 48.5C28 49.8594 29.5313 51.2656 29.8125 51.6406C31.0469 53.2812 31.2813 55.0625 31.2188 62.6562L31.1719 68.2031L24.8907 68.25L18.5938 68.2812V66.6094V64.9375L11.8125 58.125C4.46878 50.7656 4.31253 50.5781 3.90628 48.5156C3.76565 47.7656 3.81253 44.6875 4.12503 33.4531C4.57815 18.0156 4.50003 18.8281 5.53128 18.0469C6.46878 17.3281 7.3594 17.1875 8.2344 17.6094ZM35.4375 70.9688C35.7032 71.2344 35.7032 75.6875 35.4375 75.9062C35.3125 76 31.1719 76.0938 24.3594 76.1719C14.5469 76.2656 13.4688 76.25 13.2969 76.0312C13.0157 75.6875 12.8594 71.75 13.1094 71.2812C13.3282 70.875 13.5 70.8594 26.3282 70.8125C33.0938 70.7969 35.2969 70.8281 35.4375 70.9688Z" fill="#261FB8"/>
<path d="M32.1094 72.5781C31.2969 73.375 31.9375 74.6875 33.1406 74.6875C33.6406 74.6875 34.2188 74 34.2188 73.3906C34.2188 72.2969 32.8906 71.7812 32.1094 72.5781Z" fill="#261FB8"/>
<path d="M71.4844 15.0625C70.5156 15.375 69.9687 15.7031 69.2812 16.4062C68.4375 17.25 67.8906 18.2812 67.4687 19.7969C67.1406 20.9688 67.125 21.375 67.0312 30.7812C66.9844 36.1562 66.9219 40.5625 66.9062 40.5781C66.8906 40.5938 66.5469 40.2656 66.1562 39.8438C65.1406 38.75 64.2812 38.375 62.7344 38.375C60.7969 38.3594 60.25 38.6875 57.5 41.4844C56.25 42.75 53.8281 45 52.1094 46.4844C50.3906 47.9688 48.7969 49.375 48.5781 49.625C47.4375 50.875 46.6719 52.8281 46.4219 55.1875C46.3281 56.0312 46.25 59.2969 46.25 62.4844V68.25L45.0156 68.2969C43.9062 68.3594 43.7187 68.4062 43.1719 68.8438C42.0156 69.7812 41.9531 70 41.9531 73.4531V76.5L42.375 77.1406C42.6562 77.5781 43.0625 77.9062 43.625 78.1719L44.4531 78.5625L55.7031 78.6719L66.9531 78.7656L67.6406 78.4062C68.0312 78.2031 68.5469 77.7812 68.7969 77.4688C69.1875 76.9844 69.2812 76.6875 69.4062 75.4375C69.4844 74.6406 69.5312 73.2344 69.5 72.3281C69.4531 70.8125 69.4062 70.6094 68.9844 69.9219C68.2656 68.75 67.5312 68.4375 65.5156 68.4375H63.9062V67.2344V66.0312L70.4531 59.4531C76.8281 53.0469 77 52.8594 77.6406 51.5625C78.8594 49.0625 78.8281 49.7344 78.3594 33.4375C78.0469 22.2344 77.9062 18.9219 77.7344 18.4219C77.1719 16.8594 75.6719 15.5312 73.9687 15.0781C72.8906 14.7969 72.3281 14.7969 71.4844 15.0625ZM74.2969 17.9375C75.5312 18.7969 75.4062 17.6719 75.875 33.4375C76.3125 48.6406 76.3125 48.4062 75.5156 50.2031C75.1406 51.0781 74.4687 51.8125 68.25 58.0469L61.4062 64.9375V66.6094V68.2812L55.125 68.25L48.8281 68.2031L48.7812 62.6562C48.7187 55.0625 48.9531 53.2812 50.1875 51.6406C50.4687 51.2656 52 49.8594 53.5937 48.5C55.1875 47.1562 57.5469 44.9844 58.8594 43.6562C60.1562 42.3438 61.4375 41.1562 61.7031 41.0312C63.0469 40.3281 64.75 41.25 64.9531 42.7969C65.0937 43.7812 64.5625 44.4844 61.1719 47.9531C58.4375 50.7344 57.9687 51.2812 57.9687 51.6875C57.9687 52.3906 58.4375 52.875 59.1406 52.875C59.7031 52.875 59.8906 52.7031 63.2031 49.3594C66.75 45.7656 67.8281 44.4844 68.5937 42.9688C69.4531 41.2656 69.4219 41.5469 69.5312 31.0156C69.625 21.4219 69.625 21.1406 69.9687 20.1406C70.8281 17.5625 72.5156 16.6875 74.2969 17.9375ZM66.8281 71.1875C67.0156 71.4219 67.0469 71.8906 66.9844 73.6406C66.9375 75.0469 66.8281 75.875 66.7031 76.0312C66.5312 76.25 65.3281 76.2656 55.6406 76.1719C48.8281 76.0938 44.6875 76 44.5781 75.9062C44.4375 75.7812 44.375 75.0938 44.375 73.4531C44.375 71.8281 44.4375 71.0938 44.5781 70.9531C44.7344 70.7812 46.8594 70.7656 55.6875 70.8125C66.2656 70.875 66.6094 70.8906 66.8281 71.1875Z" fill="#261FB8"/>
<path d="M46.125 72.5469C45.6563 73.0469 45.6719 73.8125 46.1719 74.2969C46.375 74.5156 46.6875 74.6875 46.8594 74.6875C48.0625 74.6875 48.7031 73.375 47.8906 72.5781C47.3906 72.0625 46.5938 72.0469 46.125 72.5469Z" fill="#261FB8"/>
</svg>
