<svg width="80" height="80" viewBox="0 0 80 80" fill="none" xmlns="http://www.w3.org/2000/svg">
<path d="M10 8.95303C9.23438 9.20303 7.92188 10.5468 7.6875 11.3437C7.54688 11.8124 7.5 14.2499 7.5 20.3749C7.5 28.2187 7.48438 28.7655 7.23438 28.8437C5.73438 29.3124 4.82813 30.0312 4.1875 31.2499C3.90625 31.8124 3.82813 32.203 3.82813 33.1249C3.82813 34.4062 4.17188 35.2812 4.98438 36.1405C5.45313 36.6562 6.71875 37.3437 7.1875 37.3437C7.48438 37.3437 7.5 37.4374 7.5 40.328V43.3124L6.67188 44.203C5 46.0155 3.70313 48.4374 3.03125 51.0155C2.67188 52.3437 2.60938 52.9218 2.59375 54.8437C2.57813 57.9062 2.98438 59.7187 4.29688 62.3437C7.4375 68.6249 14.375 72.1562 21.3281 71.0155C23.6719 70.6405 26.25 69.5937 28.0469 68.3124C29.7812 67.0624 31.7344 64.953 32.7188 63.2499L33.1562 62.4999H53.7031C69.3906 62.4999 74.4062 62.453 74.9062 62.3124C75.7656 62.0624 77.0625 60.7655 77.3125 59.9062C77.5781 58.9843 77.5781 12.2812 77.3125 11.3749C77.2187 11.0312 76.8281 10.4062 76.4531 9.99991C75.2187 8.62491 78.4062 8.74991 42.4375 8.76553C19.6563 8.78116 10.3906 8.82803 10 8.95303ZM74.6094 11.6405L75 12.0155V35.6249V59.2343L74.6094 59.6093L74.2344 59.9999H54.2031C35.2031 59.9999 34.1875 59.9843 34.2969 59.7343C35 57.8905 35.1406 53.3593 34.5625 51.203C33.4219 46.9843 31.0781 43.6874 27.6406 41.4218C22.8281 38.2499 16.5781 37.9062 11.4844 40.5312C10.7969 40.8749 10.1875 41.1874 10.125 41.2187C10.0469 41.2499 10 40.3437 10 39.1874V37.1093L10.7344 36.5624C12.1406 35.4999 12.8438 33.453 12.2969 31.9062L12.0625 31.2343L14.9063 28.7187C16.4531 27.328 17.8906 26.0624 18.0625 25.8905C18.3906 25.6249 18.4375 25.6093 18.9063 25.8593C19.5938 26.2187 20.7969 26.328 21.625 26.1093L22.3438 25.9374L25.0313 28.078C26.7656 29.4374 27.7188 30.2968 27.6875 30.453C27.3438 32.5937 27.625 33.7343 28.8281 34.9218C30.0625 36.1562 31.5938 36.5312 33.2656 35.9843C34.9844 35.4374 36.1406 33.8437 36.1562 32.0312C36.1719 31.4687 36.125 30.7968 36.0625 30.5468C35.9531 30.0937 36.0469 29.9999 39.5312 27.1405L43.1094 24.203L43.75 24.5312C45.75 25.5468 48.3906 24.6718 49.4062 22.6562C49.9844 21.5155 50.0938 20.578 49.7812 19.4843C49.4531 18.328 48.7031 17.4062 47.6562 16.8124C46.9062 16.3905 46.6562 16.328 45.625 16.328C44.2031 16.3437 43.1562 16.8124 42.2812 17.8437C41.3594 18.9218 41.125 20.0937 41.4375 22.0468C41.4688 22.2187 40.2188 23.3437 37.8906 25.2812L34.3125 28.2499L33.6719 27.9218C32.7656 27.4374 30.9688 27.453 30.0312 27.9374L29.3594 28.2968L26.9375 26.3905C25.6094 25.328 24.4688 24.4062 24.4375 24.3437C24.3906 24.2655 24.4688 23.953 24.6094 23.6405C25.0313 22.7812 25.0938 21.4374 24.7656 20.453C24.3906 19.3593 23.1875 18.1249 22.125 17.7655C20.5938 17.2499 19 17.5312 17.8281 18.5468C16.5469 19.6249 15.9531 21.6405 16.4531 23.0937L16.6875 23.7655L13.5469 26.578C11.8125 28.1093 10.3281 29.3593 10.2344 29.328C10.1406 29.2968 10.0625 26.2499 10.0313 20.6405L10 12.0155L10.375 11.6405L10.7656 11.2499H42.5H74.2344L74.6094 11.6405ZM46.9375 19.3593C47.3438 19.7812 47.4219 19.9687 47.4219 20.6249C47.4219 21.2968 47.3438 21.4687 46.9062 21.9062C46.4688 22.3437 46.2969 22.4218 45.625 22.4218C44.9531 22.4218 44.7812 22.3437 44.3438 21.9062C43.9062 21.4687 43.8281 21.2968 43.8281 20.6405C43.8281 19.828 44.2188 19.203 44.9219 18.8905C45.5 18.6405 46.4219 18.8437 46.9375 19.3593ZM21.9375 20.6093C22.3438 21.0312 22.4219 21.2187 22.4219 21.8749C22.4219 22.5468 22.3438 22.7187 21.9063 23.1562C21.4688 23.5937 21.2969 23.6718 20.625 23.6718C19.9531 23.6718 19.7813 23.5937 19.3438 23.1562C18.9063 22.7187 18.8281 22.5468 18.8281 21.8905C18.8281 21.078 19.2188 20.453 19.9219 20.1405C20.5 19.8905 21.4219 20.0937 21.9375 20.6093ZM33.1875 30.6093C33.5938 31.0312 33.6719 31.2187 33.6719 31.8749C33.6719 32.5468 33.5938 32.7187 33.1562 33.1562C32.7188 33.5937 32.5469 33.6718 31.875 33.6718C31.2031 33.6718 31.0312 33.5937 30.5938 33.1562C30.1562 32.7187 30.0781 32.5468 30.0781 31.8905C30.0781 31.078 30.4688 30.453 31.1719 30.1405C31.75 29.8905 32.6719 30.0937 33.1875 30.6093ZM9.4375 31.8593C9.84375 32.2812 9.92188 32.4687 9.92188 33.1249C9.92188 33.7968 9.84375 33.9687 9.40625 34.4062C8.96875 34.8437 8.79688 34.9218 8.125 34.9218C7.45313 34.9218 7.28125 34.8437 6.84375 34.4062C6.40625 33.9687 6.32813 33.7968 6.32813 33.1405C6.32813 32.328 6.71875 31.703 7.42188 31.3905C8 31.1405 8.92188 31.3437 9.4375 31.8593ZM17.3125 54.2968C16.8906 54.6874 6.21875 60.3124 6.09375 60.2343C5.89063 60.1093 5.35938 58.2655 5.15625 57.0312C4.07813 50.078 8.71875 43.2343 15.5781 41.6562C16.1563 41.5155 16.8125 41.3905 17.0313 41.3749L17.4219 41.328L17.4688 47.7343C17.5 52.7187 17.4531 54.1718 17.3125 54.2968ZM22.5 41.7812C27.6719 43.328 31.5 47.6405 32.3125 52.8437L32.4531 53.7499H26.2188H20V47.5312V41.2968L20.9063 41.4374C21.3906 41.5155 22.1094 41.6718 22.5 41.7812ZM32.3125 57.1405C31.5938 61.7499 28.3438 65.8905 24.0781 67.6405C22.125 68.453 21.0469 68.6562 18.75 68.6562C17.2031 68.6562 16.3594 68.578 15.5625 68.3749C12.4531 67.5468 9.75 65.8124 7.96875 63.5155C7.60938 63.0468 7.32813 62.6249 7.35938 62.5937C7.39063 62.5468 10.0313 61.1249 13.2031 59.3905L18.9844 56.2655H25.7188L32.4531 56.2499L32.3125 57.1405Z" fill="#261FB8"/>
<path d="M54.1406 16.6406C53.8906 16.875 53.75 17.2031 53.75 17.5C53.75 17.7969 53.8906 18.125 54.1406 18.3594C54.375 18.6094 54.7031 18.75 55 18.75C55.2969 18.75 55.625 18.6094 55.8594 18.3594C56.1094 18.125 56.25 17.7969 56.25 17.5C56.25 17.2031 56.1094 16.875 55.8594 16.6406C55.625 16.3906 55.2969 16.25 55 16.25C54.7031 16.25 54.375 16.3906 54.1406 16.6406Z" fill="#261FB8"/>
<path d="M57.8906 16.6406C57.6406 16.875 57.5 17.2031 57.5 17.5C57.5 17.7969 57.6406 18.125 57.8906 18.3594L58.2656 18.75H64.375H70.4844L70.8594 18.3594C71.1094 18.125 71.25 17.7969 71.25 17.5C71.25 17.2031 71.1094 16.875 70.8594 16.6406L70.4844 16.25H64.375H58.2656L57.8906 16.6406Z" fill="#261FB8"/>
<path d="M54.1406 21.6406C53.8906 21.875 53.75 22.2031 53.75 22.5C53.75 22.7969 53.8906 23.125 54.1406 23.3594C54.375 23.6094 54.7031 23.75 55 23.75C55.2969 23.75 55.625 23.6094 55.8594 23.3594C56.1094 23.125 56.25 22.7969 56.25 22.5C56.25 22.2031 56.1094 21.875 55.8594 21.6406C55.625 21.3906 55.2969 21.25 55 21.25C54.7031 21.25 54.375 21.3906 54.1406 21.6406Z" fill="#261FB8"/>
<path d="M57.8906 21.6406C57.6406 21.875 57.5 22.2031 57.5 22.5C57.5 22.7969 57.6406 23.125 57.8906 23.3594L58.2656 23.75H64.375H70.4844L70.8594 23.3594C71.1094 23.125 71.25 22.7969 71.25 22.5C71.25 22.2031 71.1094 21.875 70.8594 21.6406L70.4844 21.25H64.375H58.2656L57.8906 21.6406Z" fill="#261FB8"/>
<path d="M54.1406 26.6406C53.8906 26.875 53.75 27.2031 53.75 27.5C53.75 27.7969 53.8906 28.125 54.1406 28.3594C54.375 28.6094 54.7031 28.75 55 28.75C55.2969 28.75 55.625 28.6094 55.8594 28.3594C56.1094 28.125 56.25 27.7969 56.25 27.5C56.25 27.2031 56.1094 26.875 55.8594 26.6406C55.625 26.3906 55.2969 26.25 55 26.25C54.7031 26.25 54.375 26.3906 54.1406 26.6406Z" fill="#261FB8"/>
<path d="M57.8906 26.6406C57.6406 26.875 57.5 27.2031 57.5 27.5C57.5 27.7969 57.6406 28.125 57.8906 28.3594L58.2656 28.75H64.375H70.4844L70.8594 28.3594C71.1094 28.125 71.25 27.7969 71.25 27.5C71.25 27.2031 71.1094 26.875 70.8594 26.6406L70.4844 26.25H64.375H58.2656L57.8906 26.6406Z" fill="#261FB8"/>
<path d="M40.3906 32.8906L40 33.2656V43.7656C40 51.5469 40.0469 54.4219 40.1875 54.9062C40.4375 55.7656 41.7344 57.0625 42.5938 57.3125C43.0781 57.4531 46.75 57.5 57.4844 57.5H71.7344L72.1094 57.1094C72.625 56.6094 72.625 55.8906 72.1094 55.3906C71.7656 55.0312 71.6094 55 70.25 55H68.7656L68.7188 49.5469C68.6719 44.3125 68.6563 44.0625 68.3438 43.6562C67.6094 42.6562 67.3594 42.5781 65 42.5781C62.6406 42.5781 62.3906 42.6562 61.6563 43.6562C61.3438 44.0625 61.3281 44.3125 61.2813 49.5469L61.2344 55H60.625H60L59.9688 45.7969C59.9219 36.7656 59.9219 36.5781 59.5938 36.1562C58.8594 35.1562 58.6094 35.0781 56.25 35.0781C53.8906 35.0781 53.6406 35.1562 52.9063 36.1562C52.5781 36.5781 52.5781 36.7656 52.5313 45.7969L52.5 55H51.875H51.2656L51.2188 47.6719C51.1719 40.5469 51.1563 40.3281 50.8438 39.9062C50.1094 38.9062 49.8594 38.8281 47.5 38.8281C45.1406 38.8281 44.8906 38.9062 44.1563 39.9062C43.8438 40.3281 43.8281 40.5469 43.7813 47.6719C43.7344 55.6719 43.7656 55.5 42.8906 54.6094L42.5 54.2344V43.75V33.2656L42.1094 32.8906C41.875 32.6406 41.5469 32.5 41.25 32.5C40.9531 32.5 40.625 32.6406 40.3906 32.8906ZM57.5 46.25V55H56.25H55V46.25V37.5H56.25H57.5V46.25ZM48.75 48.125V55H47.5H46.25V48.125V41.25H47.5H48.75V48.125ZM66.25 50V55H65H63.75V50V45H65H66.25V50Z" fill="#261FB8"/>
</svg>
