<svg width="80" height="80" viewBox="0 0 80 80" fill="none" xmlns="http://www.w3.org/2000/svg">
<g clip-path="url(#clip0_145_467)">
<path d="M62.2968 0.156251C61.3593 0.406251 60.203 1.04688 59.4374 1.78125C58.8436 2.35938 58.5936 2.48438 57.8749 2.57813C56.7186 2.71875 55.0311 3.59375 54.2186 4.46875C53.8593 4.85938 53.3436 5.64063 53.078 6.21875C52.6249 7.17188 52.578 7.40625 52.578 8.76563C52.578 10.1719 52.6093 10.3125 53.1561 11.4375C53.8593 12.8594 54.7655 13.7344 56.2186 14.4219L57.2655 14.9219H63.7499H70.2343L71.2811 14.4219C72.7343 13.7344 73.6405 12.8594 74.3436 11.4375C74.8905 10.3125 74.9218 10.1719 74.9218 8.76563C74.9218 7.40625 74.8749 7.17188 74.4218 6.21875C74.1561 5.64063 73.6405 4.85938 73.2811 4.46875C72.453 3.57813 70.7811 2.71875 69.5936 2.5625C68.828 2.46875 68.6405 2.375 68.1718 1.85938C67.8593 1.51563 67.1093 1 66.4843 0.687501C65.5468 0.218751 65.1561 0.125001 64.1249 0.078126C63.4374 0.031251 62.6249 0.078126 62.2968 0.156251ZM65.2499 2.875C65.7499 3.10938 66.2968 3.5625 66.7811 4.125C67.5311 4.98438 67.5468 5 68.4061 5C68.8749 5 69.5468 5.07813 69.9061 5.1875C70.7655 5.4375 72.0624 6.73438 72.3124 7.59375C72.7499 9.0625 72.4374 10.2344 71.328 11.3281C70.8436 11.8281 70.3124 12.1875 69.9061 12.3125C69.453 12.4375 67.6249 12.5 63.7499 12.5C59.8749 12.5 58.0468 12.4375 57.5936 12.3125C56.7343 12.0625 55.4374 10.7656 55.1874 9.90625C54.7499 8.4375 55.0624 7.26563 56.1718 6.17188C57.0468 5.28125 57.7655 5 59.0936 5C59.953 5 59.9686 4.98438 60.7186 4.125C61.5936 3.09375 62.6874 2.5 63.7499 2.5C64.1561 2.5 64.7811 2.65625 65.2499 2.875Z" fill="#261FB8"/>
<path d="M14.7968 2.65625C13.8593 2.90625 12.703 3.54688 11.9374 4.28125C11.3436 4.85938 11.0936 4.98438 10.3749 5.07813C9.21863 5.21875 7.53113 6.09375 6.71863 6.96875C6.35925 7.35938 5.84363 8.14063 5.578 8.71875C5.12488 9.67188 5.078 9.90625 5.078 11.2656C5.078 12.6719 5.10925 12.8125 5.65613 13.9375C6.35925 15.3594 7.2655 16.2344 8.71863 16.9219L9.7655 17.4219H16.2499H22.7343L23.7811 16.9219C25.2343 16.2344 26.1405 15.3594 26.8436 13.9375C27.3905 12.8125 27.4218 12.6719 27.4218 11.2656C27.4218 9.90625 27.3749 9.67188 26.9218 8.71875C26.6561 8.14063 26.1405 7.35938 25.7811 6.96875C24.953 6.07813 23.2811 5.21875 22.0936 5.0625C21.328 4.96875 21.1405 4.875 20.6718 4.35938C20.3593 4.01563 19.6093 3.5 18.9843 3.1875C18.0468 2.71875 17.6561 2.625 16.6249 2.57813C15.9374 2.53125 15.1249 2.57813 14.7968 2.65625ZM17.4061 5.1875C17.8593 5.3125 18.3436 5.67188 19.078 6.4375C20.0936 7.48438 20.1249 7.5 20.9374 7.5C22.2343 7.5 22.953 7.79688 23.828 8.67188C24.6405 9.46875 24.9999 10.2656 24.9999 11.25C24.9999 12.6875 23.7499 14.4063 22.4061 14.8125C21.953 14.9375 20.1249 15 16.2499 15C12.3749 15 10.5468 14.9375 10.0936 14.8125C9.23425 14.5625 7.93738 13.2656 7.68738 12.4063C7.24988 10.9375 7.56238 9.76563 8.67175 8.67188C9.54675 7.78125 10.2655 7.5 11.5936 7.5C12.453 7.5 12.4686 7.48438 13.2186 6.625C14.4218 5.20313 15.8124 4.71875 17.4061 5.1875Z" fill="#261FB8"/>
<path d="M46.9374 13.9375C46.5624 14.1093 46.2499 14.6875 46.2499 15.1718C46.2499 15.5937 47.8749 17.2812 48.3905 17.4218C49.2968 17.6406 50.1405 16.7968 49.9218 15.8906C49.8593 15.6718 49.4061 15.0937 48.9061 14.625C47.9686 13.7343 47.6093 13.6093 46.9374 13.9375Z" fill="#261FB8"/>
<path d="M29.4374 15.1874C29.0624 15.3593 28.7499 15.9374 28.7499 16.4374C28.7499 16.8593 31.6093 19.7812 32.1561 19.9218C33.0468 20.1406 33.8905 19.2968 33.6718 18.4062C33.6093 18.1874 32.8749 17.3281 32.0468 16.4999C30.4686 14.9531 30.1874 14.8124 29.4374 15.1874Z" fill="#261FB8"/>
<path d="M40.6874 17.6874C40.3124 17.8593 39.9999 18.4374 39.9999 18.9374C39.9999 19.3593 44.0936 23.5312 44.6561 23.6718C45.5468 23.8906 46.3905 23.0468 46.1718 22.1562C46.1093 21.9374 45.1093 20.8124 43.9218 19.6249C41.703 17.4218 41.4843 17.2968 40.6874 17.6874Z" fill="#261FB8"/>
<path d="M66.9217 17.6874C66.4999 17.8906 66.1874 18.6249 66.3124 19.1093C66.3592 19.3124 66.8124 19.8749 67.328 20.3593C68.4061 21.3906 68.9686 21.5156 69.6092 20.8593C70.2967 20.1874 70.1561 19.6249 69.0155 18.4843C67.9842 17.4687 67.6405 17.3437 66.9217 17.6874Z" fill="#261FB8"/>
<path d="M74.1405 17.8906C73.8905 18.1249 73.7499 18.4374 73.7499 18.7656C73.7499 19.2031 74.0311 19.5624 75.8749 21.4218C77.0624 22.6093 78.1874 23.6093 78.4061 23.6718C79.2968 23.8906 80.1405 23.0468 79.9218 22.1562C79.8593 21.9374 78.8593 20.8124 77.6718 19.6249C75.8124 17.7812 75.453 17.4999 75.0155 17.4999C74.6874 17.4999 74.3749 17.6406 74.1405 17.8906Z" fill="#261FB8"/>
<path d="M60.9374 17.8594C60.7186 17.9688 60.453 18.25 60.3436 18.5C60.0467 19.0938 60.2967 19.6406 61.328 20.625C62.0155 21.2656 62.2655 21.4062 62.7186 21.4062C63.453 21.4062 63.9061 20.9531 63.9061 20.2344C63.9061 19.7812 63.7655 19.5156 63.1717 18.8906C62.4999 18.1719 61.7811 17.6562 61.453 17.6562C61.3905 17.6562 61.1561 17.75 60.9374 17.8594Z" fill="#261FB8"/>
<path d="M10.3905 20.3906C10.1405 20.6249 9.99988 20.9374 9.99988 21.2656C9.99988 21.6874 10.2343 21.9999 11.4999 23.2968C12.328 24.1249 13.1874 24.8593 13.4061 24.9218C14.2968 25.1406 15.1405 24.2968 14.9218 23.4062C14.8593 23.1874 14.1249 22.3281 13.2968 21.4999C11.9999 20.2343 11.6874 19.9999 11.2655 19.9999C10.9374 19.9999 10.6249 20.1406 10.3905 20.3906Z" fill="#261FB8"/>
<path d="M24.4374 20.1875C24.0624 20.3593 23.7499 20.9375 23.7499 21.4218C23.7499 21.8437 25.3749 23.5312 25.8905 23.6718C26.7968 23.8906 27.6405 23.0468 27.4218 22.1406C27.3593 21.9218 26.9061 21.3437 26.4061 20.875C25.4686 19.9843 25.1093 19.8593 24.4374 20.1875Z" fill="#261FB8"/>
<path d="M55.5624 20.5469C53.9686 21.375 28.4218 36.8594 27.9843 37.25C27.2343 37.9375 26.8749 38.7969 26.8749 39.9219C26.8749 41.7031 27.9374 43.0469 29.6874 43.5469C30.2811 43.7031 30.6249 43.8906 30.6249 44.0313C30.6249 44.2031 29.0155 53.4844 27.5624 61.6719C27.4843 62.0469 27.3749 62.1875 27.1561 62.1875C26.5155 62.1875 24.8749 61.6719 23.5468 61.0625C21.828 60.2813 20.7811 60.2188 19.4999 60.8281C19.0468 61.0469 18.6561 61.1719 18.6249 61.1094C18.6093 61.0469 18.2343 59.0625 17.8124 56.7031L17.0468 52.4219L17.5468 52.0313C19.9843 50.125 21.4374 47.9219 22.2186 45.0156C22.6249 43.5 22.6561 40.5781 22.2968 38.9688C21.5468 35.5938 19.4686 32.4688 16.8124 30.7031C12.6561 27.9844 7.35925 28.4375 3.71863 31.8438C0.234253 35.0938 -0.937622 41.0469 0.953003 45.9375C2.31238 49.4688 5.578 52.5 9.03113 53.4219C9.3905 53.5313 9.68738 53.6563 9.68738 53.7188C9.68738 53.7813 10.0311 55.7656 10.453 58.125C10.8749 60.4844 11.1874 62.4531 11.1718 62.4844C11.0155 62.625 8.0155 62.1406 6.78113 61.7813C3.93738 60.9375 3.8905 60.9219 2.99988 61.1094C1.98425 61.3125 0.984253 62.0469 0.468628 62.9688L0.0780029 63.6719L0.0311279 71.4531L-0.0157471 79.2188L0.374878 79.6094L0.765503 80H39.9999H79.2343L79.6249 79.6094L80.0155 79.2188L79.9686 71.4531C79.9218 63.7656 79.9218 63.6563 79.578 63.0313C78.578 61.1563 76.6561 60.6094 74.2186 61.4844C73.078 61.8906 70.7968 62.4063 70.6718 62.2813C70.6405 62.25 71.0311 59.8281 71.5624 56.8906C72.078 53.9531 72.4999 51.5 72.4999 51.4063C72.4999 51.3281 73.0468 51.2813 73.7186 51.2813C74.7968 51.2969 75.0468 51.2344 75.7655 50.8438C77.6093 49.8438 78.2968 47.625 77.2968 45.8594C76.7968 45 57.078 20.6719 56.7186 20.4688C56.328 20.25 56.0936 20.2656 55.5624 20.5469ZM65.5468 35.1094C70.7968 41.5938 75.1405 47.0781 75.203 47.2813C75.3749 47.75 75.0468 48.4531 74.5311 48.7031C74.2343 48.8438 73.9061 48.8438 73.1718 48.7031L72.203 48.5156L68.8749 44.375C65.328 39.9844 65.0468 39.7188 64.2499 40.1719C63.6093 40.5313 63.3593 41.1406 63.6405 41.7031C63.7655 41.9375 65.2968 43.9219 67.0311 46.0781L70.2186 50.0156L69.1249 56.2188L68.0311 62.4219L67.4218 62.4688C65.8436 62.6094 63.1093 61.9844 60.8905 60.9844C59.2499 60.25 58.2499 60.2344 56.7811 60.9219C56.2186 61.1875 55.703 61.4063 55.6405 61.4063C55.578 61.4063 55.6874 60.5156 55.8749 59.4063C56.3124 56.9531 56.3436 55.75 55.953 54.9219C55.6093 54.1563 54.6093 53.2188 53.8905 53C52.7499 52.625 47.7186 51.8438 47.1405 51.9375C45.7968 52.1563 44.453 53.2813 44.0936 54.4844C43.9999 54.8125 43.703 56.4063 43.4218 58.0469C43.1405 59.6719 42.8749 61.0625 42.8124 61.1406C42.7499 61.2031 42.2968 61.0625 41.7968 60.8438C40.4843 60.2344 39.453 60.2656 37.9843 60.9375C36.2811 61.7188 35.8124 62.5469 36.6405 63.3594C37.1405 63.875 37.703 63.8594 38.953 63.2656L39.9843 62.7969L40.7343 63.125C42.1405 63.75 43.3593 64.1719 44.8436 64.5469C46.1249 64.8594 46.7343 64.9063 49.2186 64.9063C52.9218 64.9219 54.703 64.5781 57.6874 63.2656L58.7499 62.7969L59.8124 63.2656C62.453 64.4219 64.328 64.8438 67.2655 64.9531C69.9374 65.0625 72.203 64.7656 74.6093 64C77.2499 63.1563 77.4999 63.3906 77.4999 66.5781V68.7188L76.8749 68.5781C76.1874 68.4219 75.4843 68.5469 73.9843 69.0625C72.4218 69.6094 70.953 69.8594 68.9061 69.9531C65.7811 70.0938 63.5624 69.6875 60.8593 68.4688C59.1718 67.7188 58.328 67.7188 56.6405 68.4688C53.9374 69.6875 51.7343 70.0938 48.5936 69.9531C47.4999 69.9063 45.9686 69.7188 45.1249 69.5313C43.8749 69.2656 43.5311 69.2344 43.2499 69.3906C42.4218 69.8281 42.2499 70.7031 42.8593 71.3125C43.578 72.0313 47.328 72.5938 50.4686 72.4531C53.203 72.3281 55.1249 71.8906 57.703 70.7656L58.7499 70.2969L59.8124 70.7656C62.453 71.9219 64.328 72.3438 67.2655 72.4531C69.9374 72.5625 72.203 72.2656 74.6093 71.5C77.3436 70.625 77.4999 70.7969 77.4999 74.7188V77.5H39.9999H2.49988V74.7188C2.49988 70.7969 2.65613 70.625 5.3905 71.5C7.79675 72.2656 10.0624 72.5625 12.7343 72.4531C15.6718 72.3438 17.5468 71.9219 20.203 70.7656L21.2499 70.2969L22.3124 70.7656C24.953 71.9219 26.828 72.3438 29.7655 72.4531C33.0311 72.5781 35.578 72.1563 38.1405 71.0781C38.7655 70.8125 39.6093 70.5 39.9843 70.4063C41.203 70.0625 41.5936 69.1563 40.8749 68.3281C40.3436 67.7188 39.4686 67.7656 37.8593 68.4844C35.4218 69.5781 33.4061 70 30.6249 70C27.828 70 25.828 69.5781 23.3593 68.4688C22.4218 68.0469 21.9061 67.9219 21.2499 67.9219C20.5936 67.9219 20.078 68.0469 19.1405 68.4688C16.4374 69.6875 14.2186 70.0938 11.0936 69.9531C9.04675 69.8594 7.578 69.6094 6.0155 69.0625C4.5155 68.5469 3.81238 68.4219 3.12488 68.5781L2.49988 68.7188V66.5781C2.49988 63.3906 2.74988 63.1563 5.3905 64C7.79675 64.7656 10.0624 65.0625 12.7343 64.9531C15.6718 64.8438 17.5468 64.4219 20.203 63.2656L21.2499 62.7969L22.3124 63.2656C25.203 64.5313 27.1093 64.9219 30.4374 64.9219H32.9999L33.3749 64.4844C33.828 63.9531 33.8593 63.4531 33.4218 62.9063C33.1093 62.5156 33.0468 62.5 31.5468 62.5C30.578 62.5 29.9999 62.4375 29.9999 62.3438C29.9999 62.125 33.2811 43.5469 33.328 43.5C33.3436 43.4844 36.0624 41.8438 39.3749 39.8438C42.6874 37.8438 47.1874 35.125 49.3749 33.7813C51.5624 32.4531 53.5624 31.2813 53.7968 31.1719C54.703 30.7969 54.8749 30.9531 57.8436 34.6719C59.4061 36.6094 60.8124 38.3281 60.9999 38.4688C61.4686 38.8594 62.1405 38.8125 62.578 38.3594C63.3593 37.5938 63.2343 37.375 59.8905 33.2031C57.1561 29.8125 56.703 29.3125 55.9999 28.9688C55.0624 28.5156 53.7968 28.4375 52.953 28.7969C52.6561 28.9219 47.9218 31.75 42.4218 35.0781C36.9218 38.4063 32.2655 41.2031 32.0936 41.2813C31.6405 41.5 30.0624 41.1563 29.6718 40.7656C29.328 40.4219 29.2811 39.5625 29.578 39.1875C29.7499 38.9375 55.7655 23.2656 55.9374 23.2969C55.9843 23.2969 60.3124 28.6094 65.5468 35.1094ZM12.5311 31.5781C14.0936 31.9063 15.5624 32.7344 16.8593 34.0469C18.7499 35.9375 19.6561 37.8438 19.9999 40.5625C20.5936 45.3281 17.828 49.9375 13.6874 51.0313C12.4843 51.3594 10.5311 51.3125 9.31238 50.9375C4.7655 49.5313 1.71863 43.9844 2.71863 38.9063C3.71863 33.7969 7.953 30.625 12.5311 31.5781ZM14.7499 53.7031C14.7811 53.8594 15.1093 55.6719 15.4686 57.7344C15.828 59.7969 16.1405 61.5938 16.1874 61.75C16.2499 61.9531 16.0936 62.0469 15.4686 62.1719C14.203 62.4375 13.7655 62.4063 13.6718 61.9844C13.5936 61.6563 12.3593 54.5313 12.2968 54.0781C12.2811 53.9063 12.5468 53.7969 13.2811 53.6563C14.703 53.4063 14.6561 53.4063 14.7499 53.7031ZM49.9843 54.7813C53.703 55.4219 53.7655 55.4531 53.7499 56.6719C53.7343 57.4063 52.9061 61.9844 52.7499 62.1406C52.2811 62.625 45.9218 62.5313 45.4218 62.0313C45.2811 61.9063 46.2968 55.6563 46.5624 55.0313C46.703 54.7188 47.1718 54.4063 47.5624 54.3906C47.6405 54.375 48.7343 54.5625 49.9843 54.7813Z" fill="#261FB8"/>
<path d="M51.3593 37.6562C49.8905 38.0312 48.6562 39.0624 47.9843 40.4687C47.4374 41.6406 47.4062 43.4687 47.9374 44.5468C48.828 46.3593 50.2812 47.3437 52.2343 47.4687C54.2812 47.5937 56.0937 46.5468 56.9843 44.7187C57.3593 43.9531 57.4218 43.6406 57.4218 42.4999C57.4218 41.3593 57.3593 41.0624 56.9843 40.3593C56.4218 39.2812 55.6093 38.4843 54.6093 38.0312C53.6874 37.6093 52.2343 37.4374 51.3593 37.6562ZM53.5312 40.2968C54.4843 40.7343 54.9218 41.4374 54.9218 42.5312C54.9218 43.1874 54.8437 43.5312 54.5937 43.8593C53.4687 45.3749 51.5468 45.3906 50.4218 43.8906C49.6093 42.7968 50.1093 40.9999 51.4062 40.3437C52.2499 39.9218 52.6874 39.9218 53.5312 40.2968Z" fill="#261FB8"/>
<path d="M35.3592 49.8438C34.7655 50.0781 34.5624 50.6406 34.0936 53.3594C33.5936 56.1719 33.6092 56.5313 34.2499 56.9219C34.6405 57.1719 38.9686 57.9688 39.8905 57.9688C40.7811 57.9688 40.9686 57.5625 41.4686 54.7344C41.703 53.3594 41.8749 52 41.8436 51.7188C41.7655 50.9219 41.2967 50.7031 38.6717 50.2344C37.3905 50.0156 36.1874 49.8125 36.0155 49.7813C35.8436 49.7344 35.5467 49.7812 35.3592 49.8438ZM38.1092 52.6719C38.6717 52.7656 39.1561 52.875 39.1874 52.8906C39.2186 52.9219 39.1561 53.4844 39.0467 54.1406C38.8436 55.3125 38.828 55.3438 38.4217 55.25C38.203 55.2031 37.6561 55.125 37.203 55.0625C36.7655 55 36.4061 54.8906 36.4061 54.8125C36.4061 54.2344 36.7967 52.5 36.9217 52.5C37.0155 52.5 37.5467 52.5781 38.1092 52.6719Z" fill="#261FB8"/>
<path d="M59.6406 54.375C59.3124 54.6406 59.2031 54.9375 58.9843 56.1719C58.7343 57.5625 58.7343 57.6875 58.9687 58.0469C59.3906 58.6875 59.9062 58.8594 60.5468 58.5469C60.9843 58.3438 61.1249 58.1562 61.2656 57.5781C61.4687 56.7969 61.4531 56.7969 62.9218 57.0469C63.7187 57.1875 63.9062 57.2656 63.8437 57.4844C63.4218 59.0469 63.8124 59.9844 64.8906 60C65.6562 60 66.0156 59.4531 66.3124 57.7656C66.6249 56.0781 66.5781 55.5781 66.0468 55.25C65.7656 55.0625 60.8437 54.0625 60.2187 54.0625C60.1249 54.0625 59.8593 54.2031 59.6406 54.375Z" fill="#261FB8"/>
<path d="M17.8905 22.8906C17.6405 23.1249 17.4999 23.4374 17.4999 23.7656C17.4999 24.1874 17.7343 24.4999 18.9999 25.7968C19.828 26.6249 20.6874 27.3593 20.9061 27.4218C21.7968 27.6406 22.6405 26.7968 22.4218 25.9062C22.3593 25.6874 21.6249 24.8281 20.7968 23.9999C19.4999 22.7343 19.1874 22.4999 18.7655 22.4999C18.4374 22.4999 18.1249 22.6406 17.8905 22.8906Z" fill="#261FB8"/>
<path d="M36.9374 22.6875C36.5624 22.8593 36.2499 23.4375 36.2499 23.9218C36.2499 24.3437 37.8749 26.0312 38.3905 26.1718C39.2968 26.3906 40.1405 25.5468 39.9218 24.6406C39.8593 24.4218 39.4061 23.8437 38.9061 23.375C37.9686 22.4843 37.6093 22.3593 36.9374 22.6875Z" fill="#261FB8"/>
<path d="M67.1873 24.1093C66.9686 24.2187 66.703 24.4999 66.5936 24.7187C66.3123 25.3124 66.6248 25.9843 67.6248 26.9062C68.5311 27.7655 69.2811 27.9062 69.8436 27.3437C70.4061 26.7812 70.2655 26.0312 69.4217 25.1249C68.9998 24.6874 68.453 24.2343 68.1717 24.1249C67.5623 23.8593 67.6717 23.8593 67.1873 24.1093Z" fill="#261FB8"/>
<path d="M29.4374 25.1874C29.0624 25.3593 28.7499 25.9374 28.7499 26.4374C28.7499 26.8593 32.8436 31.0312 33.4061 31.1718C34.2968 31.3906 35.1405 30.5468 34.9218 29.6562C34.8593 29.4374 33.8593 28.3124 32.6718 27.1249C30.453 24.9218 30.2343 24.7968 29.4374 25.1874Z" fill="#261FB8"/>
<path d="M74.4218 25.1875C73.9999 25.3906 73.6874 26.125 73.7968 26.6094C73.8593 26.7969 74.5937 27.6406 75.4374 28.4844C76.7499 29.7656 77.0624 30 77.4843 30C78.1562 30 78.7499 29.4062 78.7499 28.7188C78.7499 28.2969 78.5155 27.9844 77.1405 26.6094C75.4687 24.9375 75.203 24.8125 74.4218 25.1875Z" fill="#261FB8"/>
<path d="M25.3905 30.3906C24.7343 31.0312 24.8593 31.5937 25.8749 32.6562C26.3437 33.1562 26.9218 33.6093 27.1405 33.6718C28.0468 33.8906 28.8905 33.0468 28.6718 32.1406C28.6093 31.9218 28.1562 31.3437 27.6562 30.875C26.5937 29.8593 26.0312 29.7343 25.3905 30.3906Z" fill="#261FB8"/>
<path d="M70.6874 30.1875C70.3124 30.3594 69.9999 30.9375 69.9999 31.4375C69.9999 31.8594 72.8593 34.7812 73.4061 34.9219C73.953 35.0625 74.6249 34.7344 74.8436 34.2344C75.1405 33.5156 74.8905 33.0625 73.2968 31.5C71.7186 29.9531 71.4374 29.8125 70.6874 30.1875Z" fill="#261FB8"/>
<path d="M76.9374 36.4375C76.5624 36.6093 76.2499 37.1875 76.2499 37.6718C76.2499 38.0937 77.8749 39.7812 78.3905 39.9218C79.2968 40.1406 80.1405 39.2968 79.9218 38.3906C79.8593 38.1718 79.4061 37.5937 78.9061 37.125C77.9686 36.2343 77.6093 36.1093 76.9374 36.4375Z" fill="#261FB8"/>
<path d="M24.4217 43.9374C23.9999 44.1406 23.6874 44.8749 23.8124 45.3593C23.8592 45.5624 24.3124 46.1249 24.828 46.6093C25.9061 47.6406 26.4686 47.7656 27.1092 47.1093C27.7967 46.4374 27.6561 45.8749 26.5155 44.7343C25.4842 43.7187 25.1405 43.5937 24.4217 43.9374Z" fill="#261FB8"/>
<path d="M3.17178 52.6875C2.74991 52.8906 2.43741 53.625 2.54678 54.0937C2.60928 54.2969 3.62491 55.4219 4.81241 56.6094C6.68741 58.4687 7.04678 58.75 7.48428 58.75C8.15616 58.75 8.74991 58.1562 8.74991 57.4687C8.74991 57.0312 8.46866 56.6875 6.51553 54.7344C4.20303 52.4219 3.99991 52.2969 3.17178 52.6875Z" fill="#261FB8"/>
<path d="M21.6405 52.8906C20.9843 53.5312 21.1093 54.0937 22.1249 55.1562C22.5937 55.6562 23.1718 56.1093 23.3905 56.1718C24.2968 56.3906 25.1405 55.5468 24.9218 54.6406C24.8593 54.4218 24.4062 53.8437 23.9062 53.375C22.8437 52.3593 22.2812 52.2343 21.6405 52.8906Z" fill="#261FB8"/>
</g>
<defs>
<clipPath id="clip0_145_467">
<rect width="80" height="80" fill="white"/>
</clipPath>
</defs>
</svg>
