<svg width="80" height="80" viewBox="0 0 80 80" fill="none" xmlns="http://www.w3.org/2000/svg">
<path d="M39.1406 0.187654C38.4844 0.562654 38.4531 0.750154 38.4375 3.7189V6.5939L38.8906 7.04703C39.4531 7.60953 39.9844 7.62515 40.6094 7.0939L41.0938 6.68765V3.7814C41.0781 0.718904 41.0469 0.547029 40.3594 0.187654C39.9375 -0.046721 39.5469 -0.046721 39.1406 0.187654Z" fill="#261FB8"/>
<path d="M24.25 6.45321C24.0156 6.70321 23.9062 7.01571 23.9062 7.42196C23.9062 7.98446 24.0469 8.15633 25.8906 10.0157C27.9375 12.0938 28.4062 12.3751 29.0938 12.0157C29.6406 11.7188 29.8281 11.3907 29.8438 10.7188C29.8438 10.1407 29.7188 10.0001 27.8438 8.10946C25.9531 6.18758 25.8281 6.09383 25.2188 6.09383C24.7656 6.09383 24.5 6.18758 24.25 6.45321Z" fill="#261FB8"/>
<path d="M52.75 8.20321C50.5781 10.2032 50.1562 10.6876 50.1562 11.1876C50.1562 12.0313 50.9688 12.7032 51.8125 12.5313C52.2188 12.4532 55.8594 9.12508 56.2031 8.53133C56.5156 7.98446 56.4375 7.50008 55.9531 7.01571C55.125 6.20321 54.7656 6.32821 52.75 8.20321Z" fill="#261FB8"/>
<path d="M37.1094 10.7656C32.3125 12.0312 28.9062 15.4062 27.625 20.1406C27.125 21.9688 27.1719 24.7812 27.7187 26.6406C28.2969 28.5469 29.1562 30.125 30.5625 31.7969C31.8125 33.2969 32.3906 34.3125 32.7344 35.6406C33.0937 36.9375 33.0469 37.6406 32.6094 37.7969C32.1406 37.9844 31.8906 38.2812 31.7812 38.875C31.7031 39.2812 31.7656 39.4375 32.1562 39.8438L32.625 40.3125H40.1562H47.6719L48.0469 39.9219C48.3125 39.6719 48.4375 39.375 48.4375 38.9844C48.4375 38.3438 47.875 37.6562 47.3437 37.6562C46.9687 37.6562 46.9375 37.3125 47.2031 36.0625C47.4687 34.7812 48.1719 33.4531 49.25 32.1875C51.1094 30 51.9062 28.5625 52.5156 26.3281C53.0312 24.4375 53 21.6562 52.4375 19.7969C51.75 17.5 50.8125 15.9062 49.1875 14.25C47.4375 12.4844 45.4375 11.3438 43.0625 10.7812C41.375 10.375 38.6406 10.375 37.1094 10.7656ZM43.125 13.5312C46.1562 14.4844 48.6562 16.9531 49.7031 20C49.9219 20.6719 50.0625 21.5469 50.125 22.5938C50.25 25.4688 49.5156 27.5938 47.5625 29.9219C45.4531 32.4531 44.6406 34.1562 44.3906 36.5625L44.2969 37.5781L40.0781 37.625L35.8437 37.6562L35.6562 36.3438C35.2969 33.8906 34.5156 32.2188 32.6875 30.0312C31.3594 28.4531 30.7187 27.2656 30.3125 25.6875C29.3125 21.8125 30.7812 17.625 33.9531 15.2188C36.75 13.1094 39.9375 12.5156 43.125 13.5312Z" fill="#261FB8"/>
<path d="M35.4688 42.6094C34.4375 42.9844 34.2032 44.2188 35.0157 44.9062L35.5 45.3125H40.0469C44.25 45.3125 44.6407 45.2812 45.0938 45.0156C45.6719 44.6562 45.875 44.0312 45.6094 43.4062C45.25 42.5469 44.9844 42.5 40.125 42.5156C37.6875 42.5156 35.5938 42.5625 35.4688 42.6094Z" fill="#261FB8"/>
<path d="M39.3594 50.8283C38.8594 51.2189 38.75 51.7033 38.75 53.6564V55.6252H25.6094H12.4688L12.0156 56.0783L11.5625 56.5314V59.8439C11.5625 63.1408 11.5625 63.1408 11.9531 63.5158C12.4688 64.047 13.3125 64.047 13.8281 63.5158C14.2031 63.1564 14.2188 63.0783 14.2188 60.7814V58.4377H26.4844H38.75V60.7814C38.75 63.0783 38.7656 63.1564 39.1406 63.5158C39.6562 64.047 40.5938 64.047 41.0625 63.547C41.3906 63.2033 41.4062 63.0314 41.4062 60.8127V58.4377H53.6719H65.9375V60.6252C65.9375 63.4845 66.125 63.9064 67.4062 63.9064C67.75 63.9064 68.0312 63.7814 68.2969 63.5002C68.6562 63.1095 68.6719 63.0314 68.7188 60.0783C68.7812 56.7189 68.6406 56.0627 67.8906 55.7814C67.625 55.6877 62.7031 55.6252 54.4375 55.6252H41.4062V53.5158C41.4062 51.4689 41.3906 51.3752 41.0156 51.0158C40.5938 50.5939 39.7812 50.5002 39.3594 50.8283Z" fill="#261FB8"/>
<path d="M10.75 66.2346C5.68751 67.8596 4.20314 74.344 8.06251 78.0315C12.1406 81.9377 18.875 79.6408 19.8438 74.0315C20.2969 71.4065 19 68.5002 16.7188 67.0315C15.0469 65.9533 12.6406 65.6408 10.75 66.2346ZM14.2031 68.844C15.2813 69.1565 16.4063 70.1877 16.875 71.2815C17.5781 72.9221 17.0781 75.0471 15.75 76.1877C13.3906 78.1721 9.76564 77.2033 8.81251 74.3283C8.48439 73.344 8.57814 71.8752 9.03126 70.9846C9.46876 70.1252 10.6719 69.1096 11.5469 68.844C12.5 68.5471 13.2031 68.5471 14.2031 68.844Z" fill="#261FB8"/>
<path d="M38.2031 66.1563C35.8281 66.9063 34.0938 68.6095 33.4219 70.8126C32.9219 72.4376 33.0313 74.3907 33.7188 75.8282C34.2969 77.0782 35.6094 78.5157 36.6875 79.1095C41.0313 81.4688 46.3125 78.8282 47.0781 73.9063C47.5781 70.6095 45.4531 67.2501 42.2188 66.2501C41.0625 65.8907 39.1719 65.8438 38.2031 66.1563ZM41.9063 69.0313C42.7188 69.3907 43.6094 70.2501 44 71.0626C44.4063 71.9063 44.4688 73.5938 44.1406 74.4845C43.25 76.797 40.4375 77.9063 38.2188 76.8126C36.2969 75.8751 35.3906 73.7657 36 71.6407C36.3438 70.4688 37.5625 69.2032 38.6875 68.8438C39.6406 68.5313 40.9688 68.6095 41.9063 69.0313Z" fill="#261FB8"/>
<path d="M65.2344 66.2188C63.3281 66.875 61.875 68.1563 60.9844 69.9531C60.5157 70.9063 60.4219 71.2813 60.3594 72.4531C60.2188 74.7656 60.9219 76.5625 62.5313 78.0469C63.6406 79.0781 64.75 79.625 66.2188 79.875C71.1719 80.7031 75.4063 76.0469 74.125 71.1719C73.5156 68.7969 71.5156 66.7813 69.1563 66.1563C68.0469 65.8594 66.1875 65.8906 65.2344 66.2188ZM69.1875 69.0469C70.7813 69.8594 71.6406 71.2344 71.6094 72.9531C71.5781 76.7813 66.9688 78.6719 64.2656 75.9688C63.4219 75.125 63.0469 74.1875 63.0625 72.8906C63.0781 70.8906 64.2188 69.3906 66.25 68.7344C66.8594 68.5313 68.5156 68.7031 69.1875 69.0469Z" fill="#261FB8"/>
</svg>
