<svg width="132" height="40" viewBox="0 0 132 40" fill="none" xmlns="http://www.w3.org/2000/svg">
<path d="M0.644172 32.0329C1.94426 29.5835 11.845 12.3039 14.3085 8.18463C16.4242 4.64701 17.0156 3.77682 17.0156 3.77682C17.0479 3.83432 18.6835 6.4141 20.4046 9.38835C22.1258 12.3626 23.6817 15.0392 23.8623 15.3364L24.1906 15.8767L22.3398 16.953C21.3219 17.545 20.3265 18.1337 20.1278 18.2613L19.7666 18.4932L18.5168 16.6052C17.8294 15.5667 17.173 14.6393 17.0582 14.5441L16.8495 14.371L13.9641 19.5262C12.3771 22.3616 11.1311 24.7338 11.1952 24.7978C11.8505 25.4524 19.0366 21.8607 23.9266 18.4346C34.1109 11.299 37.0694 5.86675 31.3374 4.82741L30.6701 4.70642L30.9873 4.52909C31.1618 4.43157 32.1195 4.34874 33.1156 4.34503C34.1981 4.35075 34.7995 4.39199 35.8329 4.74025C40.0546 6.61258 37.3085 12.7536 29.5125 18.8747C28.4254 19.7283 27.4645 20.4903 27.3772 20.5682C27.1933 20.7322 27.5646 21.4473 29.7733 25.1823C31.8609 28.7127 33.6375 31.9333 33.6375 32.1874V32.3926H30.6467H27.656L25.4167 28.4012C24.1852 26.2059 23.0695 24.2612 22.9375 24.0796L22.6976 23.7493L20.1324 25.2482C13.2798 29.2523 6.5561 31.8057 1.46543 32.3372L0.425049 32.4458L0.644172 32.0329ZM40.0828 32.1414C37.9207 31.7457 35.0146 30.4059 35.0146 30.4059L36.7397 26.8035L40.9422 28.0043C40.9422 28.0043 43.8034 28.6941 45.4109 28.0149C45.6635 27.9082 46.0396 27.7025 46.0396 27.7025C48.3121 26.573 47.065 25.0899 42.9812 24.0651C37.6668 22.7317 35.519 21.161 35.2337 18.3994C34.6465 12.7171 41.8531 9.77522 49.4604 12.5917L50.6531 13.0333L49.0227 16.942C46 15.5 39.9969 15.5837 39.9969 17.3712C39.9969 18.4457 40.8401 18.8872 44.5884 19.7755C47.7698 20.5293 49.2706 21.231 50.4437 22.513C51.6167 23.7949 51.7879 24.9689 51.7882 26.6782C51.7889 31.7228 46.4587 33.3085 40.0828 32.1414ZM60.4044 32.2146C56.6764 31.2869 55.7415 29.1689 55.8228 21.8347C55.8479 19.5686 55.8389 16.0515 55.8389 16.0515H53.1094V11.7918H55.8094V4.06646H61.1375V11.7918H66.8094V14.1094V16.2553H63.9734H61.1375L61.1104 18.015C61.0588 21.3588 61.1604 24.5852 61.3496 25.6115C61.4737 26.2433 61.594 26.594 62.0947 27.1995C62.6996 27.8073 62.8225 27.8295 65.2195 27.7623L66.6375 27.7226V29.7076V31.6926L65.7352 31.9809C64.6884 32.3153 61.3901 32.4599 60.4044 32.2146ZM68.0125 18.2296V4.06646H70.5906H73.1687V8.53439V13.0023L73.7124 12.7215C75.0532 12.029 78.4694 10.9033 81.2914 11.8577C84.1776 12.8338 86.0729 14.3077 86.8572 17.325L87.137 18.4012L87.2159 25.3969L87.2948 32.3926H84.6241H81.9533L81.9009 25.9119L81.8484 19.4313C81.4543 18.5579 80.5 16.5 78 16.5C74.5 16.5 73.1687 17.997 73.1687 17.997V25.1948V32.3926H70.5906H68.0125V18.2296ZM97.0594 32.1229C95.3579 31.69 94.5285 31.3073 93.2038 30.4508C91.6118 29.0208 90.8657 28.1528 89.8908 26.443C87.0624 20.7986 89.9874 14.2443 96.2859 12.1131C97.5896 11.6876 98.3844 11.5791 99.8594 11.5022C99.8594 11.5022 101.426 11.5178 102.352 11.7597C102.858 11.892 103.562 12.1678 103.562 12.1678C111.138 14.9205 113.301 23.5269 107.808 29.0641C106.843 30.0544 106.207 30.4948 104.966 31.1508C102.404 32.3682 99.4073 32.7367 97.0594 32.1229ZM102.622 26.9235C103.959 26.2659 104.818 25.3347 105.325 23.9942C105.526 23.1092 105.578 22.6178 105.615 21.7455C105.461 18.9912 103.894 16.9756 101.414 16.342C100.607 16.1625 100.144 16.1399 99.3083 16.2397C91.7939 17.4484 92.5149 27.8121 100.094 27.5296C101.131 27.4753 101.684 27.3396 102.622 26.9235ZM112.234 32.3926V12.3453H117.391V13.3906L118.458 12.9331C118.93 12.7138 119.743 12.3876 120.262 12.2083C121.268 11.9818 121.858 11.9326 122.927 11.8916C127.711 11.9174 130.441 13.7982 131.312 17.8541V32.3926H126.328V19.9142L126.07 18.97C124.523 16.3949 121.386 15.7356 118.415 17.5067L117.391 18.0258C117.39 19.9178 117.391 32.3926 117.391 32.3926H114.735H112.234Z" fill="white"/>
</svg>
