<svg width="80" height="80" viewBox="0 0 80 80" fill="none" xmlns="http://www.w3.org/2000/svg">
<path d="M61.9531 0.234276C60.7031 0.515526 59.9687 0.828026 58.7187 1.67178C54.4219 4.4999 53.3906 10.703 56.5156 14.7812C56.8125 15.1874 57.0156 15.5937 56.9687 15.7187C56.9219 15.828 54.6875 19.0312 52.0156 22.8124C48.4219 27.9062 47.0781 29.6874 46.8906 29.6249C46.75 29.5937 46.2031 29.3749 45.6562 29.1405C44.0469 28.4687 42.6562 28.2343 40.7031 28.328C37.9375 28.453 35.3594 29.4687 33.4687 31.1874L32.5156 32.0468L25.9375 26.953C22.3281 24.1405 19.375 21.8437 19.375 21.828C19.375 21.8124 19.5156 21.3437 19.6875 20.8124C20.8594 17.0624 18.7656 12.9843 15.0312 11.703C12.4219 10.8124 9.67186 11.3905 7.60936 13.2812C5.15623 15.5155 4.53123 18.9374 6.01561 21.9843C7.84373 25.703 12.3125 27.1562 16.0625 25.2499C16.5156 25.0155 16.9687 24.8905 17.0781 24.953C17.5937 25.2499 30.3125 35.203 30.3125 35.2812C30.3125 35.3437 30.1875 35.7343 30.0156 36.1718C28.9844 38.9062 29.2187 42.828 30.5781 45.5468C31.0156 46.4062 31.9844 47.7812 32.7031 48.5468C33 48.8593 33.1094 49.1093 33.0312 49.2499C32.9687 49.3593 31.1719 51.9218 29.0312 54.953L25.1562 60.453L24.3125 60.0624C21.4375 58.7499 17.7187 59.0311 15.0156 60.7811C9.74998 64.203 8.93748 71.6093 13.3437 76.0155C15.2812 77.9374 17.6094 78.9061 20.375 78.9061C22.0312 78.9061 23.2656 78.6093 24.8437 77.8436C26.4375 77.078 28.2969 75.2186 29.0469 73.6718C29.9219 71.8436 30.0625 71.203 30.0781 69.0624C30.0781 66.8124 29.8125 65.7655 28.7344 63.9999C28.375 63.4062 28.1562 62.8749 28.2187 62.7655C28.2812 62.6718 30.1562 59.9999 32.375 56.8593L36.4219 51.1561L37.5 51.5155C39.7812 52.2811 42.0156 52.3436 44.4219 51.703C45.0937 51.5155 45.6562 51.3905 45.6875 51.4218C46.25 52.1561 55.4687 65.953 55.4687 66.0624C55.4687 66.1561 55.2344 66.578 54.9375 67.0155C54.0625 68.2968 53.7031 69.4218 53.625 71.1093C53.5469 72.9374 53.75 74.0311 54.4687 75.4686C55.8906 78.3124 59.2031 80.1718 62.3906 79.9374C65.4375 79.7186 68.0312 77.9999 69.375 75.3124C69.875 74.3124 70.0156 73.828 70.1562 72.4218C70.4219 69.8749 69.6094 67.578 67.7969 65.7655C65.7031 63.6562 62.7344 62.8124 59.8906 63.5311C59.3437 63.6718 58.8281 63.7499 58.7344 63.7186C58.6406 63.6874 56.4062 60.4686 53.7656 56.5624L48.9531 49.453L49.9062 48.4061C50.9844 47.2343 51.7344 46.0624 52.2656 44.7343C52.5625 44.0312 52.7187 43.828 53 43.7968C53.2031 43.7812 54.8437 44.0624 56.6406 44.4218L59.9219 45.0937L60.0469 45.703C60.3281 46.9687 60.9531 48.3749 61.625 49.2343C62.4375 50.2811 63.9219 51.2968 65.1406 51.6874C66.4375 52.078 68.7187 52.0468 69.8906 51.5936C73.2187 50.328 75.25 46.9062 74.7031 43.5312C74.1719 40.3124 71.7031 37.8593 68.4687 37.328C65.7812 36.8905 62.8125 38.1718 61.3281 40.4062C61 40.8905 60.6562 41.2499 60.4844 41.2499C60.3437 41.2499 58.6406 40.9374 56.7187 40.5468C54.7969 40.1562 53.2031 39.8437 53.1719 39.8437C53.1406 39.8437 53.125 39.5312 53.125 39.1718C53.125 37.4999 52.0469 34.6718 50.7656 32.9843L50.1406 32.1562L50.5156 31.578C50.8125 31.1249 60.125 17.9687 60.2187 17.8593C60.2344 17.8437 60.7031 17.9687 61.25 18.1562C62.7031 18.6249 65.1406 18.6405 66.6406 18.1718C70.4844 16.9687 73.125 13.4687 73.1719 9.45303C73.2031 7.78115 72.9687 6.73428 72.2187 5.15615C71.5469 3.70303 69.7812 1.89053 68.3281 1.1249C66.3906 0.109276 64.0156 -0.218849 61.9531 0.234276ZM66.2812 4.4999C67.4844 5.09365 68.3125 5.9374 68.875 7.17178C69.4531 8.42178 69.4531 10.1718 68.875 11.4374C67.4531 14.5312 63.8594 15.6249 61 13.828C59.4375 12.828 58.5625 11.203 58.5625 9.29678C58.5625 8.6874 58.6719 7.90615 58.8125 7.53115C59.9219 4.45303 63.3594 3.0624 66.2812 4.4999ZM14.5625 15.7187C15.8594 16.6249 16.4062 17.9218 16.1094 19.3593C15.9062 20.3749 15.4375 21.1249 14.6562 21.6405C12.8281 22.8593 10.4375 22.2343 9.46873 20.2968C8.54686 18.4374 9.28123 16.3437 11.1719 15.4374C12.1406 14.9843 13.6875 15.0937 14.5625 15.7187ZM42.8594 32.2655C46.6094 33.0624 49.3594 36.4218 49.375 40.2343C49.375 43.7187 46.7031 47.1718 43.3281 48.0468C42.2187 48.3436 40.3281 48.3436 39.2656 48.0624C36.375 47.2968 34.0469 44.8905 33.3594 41.9999C32.5312 38.4687 34.2344 34.7655 37.5 33.0624C39.3281 32.0937 40.9531 31.8593 42.8594 32.2655ZM69.3125 41.6405C69.8594 41.9843 70.1875 42.3437 70.5156 42.9687C70.9219 43.7343 70.9531 43.953 70.8906 44.8437C70.6406 48.5624 65.8281 49.4687 64.1406 46.1093C63.5156 44.8749 63.9531 42.8593 65.0156 41.9687C65.8437 41.2655 66.375 41.078 67.5156 41.1405C68.3437 41.1718 68.7031 41.2812 69.3125 41.6405ZM23 63.7186C26.6406 65.5155 27.4687 70.3124 24.6406 73.2499C24.2812 73.6249 23.5625 74.1405 23.0312 74.3905C19.9531 75.9061 16.4062 74.6718 14.9375 71.5624C14.5 70.6561 14.4531 70.3905 14.4531 69.0624C14.4531 67.7186 14.5 67.4843 14.9375 66.5624C15.4687 65.453 16.2344 64.5936 17.2187 63.953C18.2344 63.328 19.0156 63.1405 20.5469 63.1718C21.7969 63.203 22.0781 63.2655 23 63.7186ZM63.7812 67.5311C64.7187 67.9374 65.8281 69.1249 66.1562 70.1093C66.7031 71.703 66.3594 73.4061 65.2187 74.6718C63.1094 77.0311 59.2656 76.4999 57.8125 73.6405C57.2656 72.578 57.25 70.703 57.7812 69.6874C58.9844 67.3905 61.4062 66.5155 63.7812 67.5311Z" fill="#261FB8"/>
</svg>
