<svg width="80" height="80" viewBox="0 0 80 80" fill="none" xmlns="http://www.w3.org/2000/svg">
<path d="M21.0312 1.42188C20.0625 1.65626 18.6406 2.48438 17.9531 3.23438C17.6094 3.60938 17.0938 4.39063 16.8281 4.96876L16.3281 6.01563V40.0156V74L16.9062 75.1875C17.6094 76.6094 18.5156 77.4844 19.9688 78.1719L21.0156 78.6719H40H58.9844L60.0312 78.1719C61.4844 77.4844 62.3906 76.6094 63.0938 75.1875L63.6719 74V40.0156V6.01563L63.1719 4.96876C62.4844 3.51563 61.6094 2.60938 60.1875 1.90626L59 1.32813L40.3281 1.29688C29.375 1.28126 21.3906 1.34376 21.0312 1.42188ZM58.6562 3.93751C59.5156 4.18751 60.8125 5.48438 61.0625 6.34376C61.3438 7.28126 61.3438 72.7188 61.0625 73.6563C60.8125 74.5156 59.5156 75.8125 58.6562 76.0625C57.7188 76.3281 22.2812 76.3281 21.3438 76.0625C20.4844 75.8125 19.1875 74.5156 18.9375 73.6563C18.6562 72.7188 18.6562 7.28126 18.9375 6.34376C19.1719 5.54688 20.4844 4.20313 21.25 3.95313C22.0781 3.68751 57.7812 3.68751 58.6562 3.93751Z" fill="#261FB8"/>
<path d="M23.75 6.45324C22.9844 6.70324 21.6719 8.04699 21.4375 8.84386C21.1562 9.78136 21.1562 70.2189 21.4375 71.1564C21.6875 72.0157 22.9844 73.3126 23.8438 73.5626C24.3281 73.7032 28.2812 73.7501 40.0312 73.7501C57.6562 73.7501 56.5156 73.8282 57.7031 72.5001C58.0781 72.0939 58.4688 71.4689 58.5625 71.1251C58.8438 70.2189 58.8281 9.76574 58.5625 8.84386C58.3125 7.98449 57.0156 6.68761 56.1562 6.43761C55.7969 6.32824 54.7188 6.25011 53.7656 6.25011C52.125 6.25011 52 6.26574 51.6406 6.64074C51.2656 7.00011 51.25 7.12511 51.25 8.75011C51.25 10.3751 51.2344 10.5001 50.8594 10.8595L50.4844 11.2501H40H29.5156L29.1406 10.8595C28.7656 10.5001 28.75 10.3751 28.75 8.75011C28.75 7.12511 28.7344 7.00011 28.3594 6.64074C28 6.26574 27.9062 6.25011 26.1406 6.26574C25.125 6.28136 24.0469 6.35949 23.75 6.45324ZM26.25 9.62511C26.25 10.1095 26.3281 10.797 26.4375 11.1564C26.6875 12.0157 27.9844 13.3126 28.8438 13.5626C29.3281 13.7032 32.2031 13.7501 40.0312 13.7501C52.0469 13.7501 51.5312 13.797 52.7031 12.5001C53.4688 11.6407 53.75 10.8907 53.75 9.62511V8.75011H54.6094C55.3281 8.75011 55.5469 8.81261 55.8594 9.14074L56.25 9.51574V40.0001V70.4845L55.8594 70.8595L55.4844 71.2501H40H24.5156L24.1406 70.8595L23.75 70.4845V40.0001V9.51574L24.1406 9.14074C24.4531 8.81261 24.6719 8.75011 25.3906 8.75011H26.25V9.62511Z" fill="#261FB8"/>
<path d="M38.2814 16.3594C31.5157 17.3751 26.6876 22.6094 26.297 29.2969C25.9376 35.7969 30.1876 41.5782 36.6407 43.3282C38.3126 43.7813 41.5782 43.7969 43.1876 43.3751C51.2032 41.2501 55.5782 33.2657 52.9689 25.5157C51.7032 21.7501 48.3907 18.3751 44.672 17.0782C42.6876 16.3907 40.0314 16.0938 38.2814 16.3594ZM38.7501 24.4532V30.0001H33.7345H28.7032L28.8126 28.8594C29.2501 24.3907 32.6876 20.3282 37.0314 19.1563C37.5001 19.0313 38.0782 18.9219 38.3282 18.9219L38.7501 18.9063V24.4532ZM43.8439 19.4376C47.4845 20.7657 50.297 24.0626 51.0314 27.9063C51.6095 30.9688 50.8907 34.1251 49.047 36.6251L48.2501 37.7032L44.7501 34.2032L41.2501 30.7032V24.7813V18.8594L42.047 18.9688C42.4845 19.0313 43.2814 19.2344 43.8439 19.4376ZM42.8751 35.9219L46.297 39.3438L45.547 39.7813C42.2189 41.7188 37.6564 41.6719 34.2657 39.6719C31.9064 38.2657 29.7501 35.4376 29.1564 32.9219L29.0626 32.5001H34.2501H39.4532L42.8751 35.9219Z" fill="#261FB8"/>
<path d="M46.6406 44.1406L46.25 44.5156V53.75V62.9844L46.6406 63.3594C47.0156 63.75 47.0469 63.75 50 63.75C52.9531 63.75 52.9844 63.75 53.3594 63.3594L53.75 62.9844V53.75V44.5156L53.3594 44.1406C52.9844 43.75 52.9531 43.75 50 43.75C47.0469 43.75 47.0156 43.75 46.6406 44.1406ZM51.25 53.75V61.25H50H48.75V53.75V46.25H50H51.25V53.75Z" fill="#261FB8"/>
<path d="M36.6406 49.1406L36.25 49.5156V56.25V62.9844L36.6406 63.3594C37.0156 63.75 37.0469 63.75 40 63.75C42.9531 63.75 42.9844 63.75 43.3594 63.3594L43.75 62.9844V56.25V49.5156L43.3594 49.1406C42.9844 48.75 42.9531 48.75 40 48.75C37.0469 48.75 37.0156 48.75 36.6406 49.1406ZM41.25 56.25V61.25H40H38.75V56.25V51.25H40H41.25V56.25Z" fill="#261FB8"/>
<path d="M26.6406 54.1406L26.25 54.5156V58.75V62.9844L26.6406 63.3594C27.0156 63.75 27.0469 63.75 30 63.75C32.9531 63.75 32.9844 63.75 33.3594 63.3594L33.75 62.9844V58.75V54.5156L33.3594 54.1406C32.9844 53.75 32.9531 53.75 30 53.75C27.0469 53.75 27.0156 53.75 26.6406 54.1406ZM31.25 58.75V61.25H30H28.75V58.75V56.25H30H31.25V58.75Z" fill="#261FB8"/>
<path d="M32.5 67.5V68.75H40H47.5V67.5V66.25H40H32.5V67.5Z" fill="#261FB8"/>
<path d="M31.25 7.5V8.75H37.5H43.75V7.5V6.25H37.5H31.25V7.5Z" fill="#261FB8"/>
<path d="M46.25 7.5V8.75H47.5H48.75V7.5V6.25H47.5H46.25V7.5Z" fill="#261FB8"/>
</svg>
